<?xml version="1.0" encoding="iso-8859-1"?>
<!-- Generator: Adobe Illustrator 19.0.0, SVG Export Plug-In . SVG Version: 6.00 Build 0)  -->
<svg xmlns="http://www.w3.org/2000/svg" xmlns:xlink="http://www.w3.org/1999/xlink" version="1.1" id="Capa_1" x="0px" y="0px" viewBox="0 0 512 512" style="enable-background:new 0 0 512 512;" xml:space="preserve" width="512px" height="512px">
<g>
	<g>
		<path d="M485.367,72.226c-10.342-10.342-16.034-24.081-16.034-38.707v-8.806C469.333,11.093,458.249,0,444.621,0H67.379    C53.751,0,42.667,11.093,42.667,24.713v8.815c0,14.626-5.692,28.365-16.034,38.707C9.455,89.404,0,112.239,0,136.533    c0,4.719,3.823,8.533,8.533,8.533h494.933c4.71,0,8.533-3.814,8.533-8.533C512,112.239,502.545,89.404,485.367,72.226z     M17.553,128c1.886-16.512,9.225-31.787,21.154-43.708c13.559-13.568,21.026-31.599,21.026-50.773v-8.806    c0-4.215,3.43-7.646,7.646-7.646h377.242c4.215,0,7.646,3.43,7.646,7.646v8.815c0,19.174,7.467,37.205,21.035,50.773    c11.921,11.913,19.268,27.187,21.154,43.699H17.553z" fill="#FF2C68"/>
	</g>
</g>
<g>
	<g>
		<path d="M119.467,0c-4.71,0-8.533,3.814-8.533,8.533v26.325c0,14.729-4.002,29.184-11.58,41.813    c-9.173,15.283-14.02,32.785-14.02,50.603v9.259c0,4.719,3.823,8.533,8.533,8.533c4.71,0,8.533-3.814,8.533-8.533v-9.259    c0-14.72,4.002-29.184,11.58-41.813C123.153,70.178,128,52.676,128,34.859V8.533C128,3.814,124.177,0,119.467,0z" fill="#FF2C68"/>
	</g>
</g>
<g>
	<g>
		<path d="M187.733,0c-4.71,0-8.533,3.814-8.533,8.533v29.44c0,13.875-1.382,27.81-4.096,41.421    c-2.944,14.711-4.437,29.773-4.437,44.766v12.373c0,4.719,3.823,8.533,8.533,8.533s8.533-3.814,8.533-8.533V124.16    c0-13.875,1.382-27.81,4.096-41.421c2.944-14.711,4.437-29.773,4.437-44.766V8.533C196.267,3.814,192.444,0,187.733,0z" fill="#FF2C68"/>
	</g>
</g>
<g>
	<g>
		<path d="M256,0c-4.71,0-8.533,3.814-8.533,8.533v128c0,4.719,3.823,8.533,8.533,8.533s8.533-3.814,8.533-8.533v-128    C264.533,3.814,260.71,0,256,0z" fill="#FF2C68"/>
	</g>
</g>
<g>
	<g>
		<path d="M336.896,79.394c-2.714-13.611-4.096-27.546-4.096-41.421V8.533c0-4.719-3.823-8.533-8.533-8.533    s-8.533,3.814-8.533,8.533v29.44c0,14.993,1.493,30.063,4.437,44.766c2.714,13.611,4.096,27.546,4.096,41.421v12.373    c0,4.719,3.823,8.533,8.533,8.533c4.71,0,8.533-3.814,8.533-8.533V124.16C341.333,109.167,339.84,94.097,336.896,79.394z" fill="#FF2C68"/>
	</g>
</g>
<g>
	<g>
		<path d="M412.646,76.672c-7.578-12.629-11.58-27.085-11.58-41.813V8.533c0-4.719-3.823-8.533-8.533-8.533    C387.823,0,384,3.814,384,8.533v26.325c0,17.818,4.847,35.32,14.02,50.603c7.578,12.629,11.58,27.085,11.58,41.813v9.259    c0,4.719,3.823,8.533,8.533,8.533s8.533-3.814,8.533-8.533v-9.259C426.667,109.457,421.82,91.955,412.646,76.672z" fill="#FF2C68"/>
	</g>
</g>
<g>
	<g>
		<path d="M93.867,128H8.533C3.823,128,0,131.814,0,136.533v12.8c0,25.873,21.052,46.933,46.933,46.933h8.533    c25.882,0,46.933-21.06,46.933-46.933v-12.8C102.4,131.814,98.577,128,93.867,128z M85.333,149.333    c0,16.469-13.397,29.867-29.867,29.867h-8.533c-16.469,0-29.867-13.397-29.867-29.867v-4.267h68.267V149.333z" fill="#FF2C68"/>
	</g>
</g>
<g>
	<g>
		<path d="M179.2,128H93.867c-4.71,0-8.533,3.814-8.533,8.533v12.8c0,25.873,21.052,46.933,46.933,46.933h8.533    c25.882,0,46.933-21.06,46.933-46.933v-12.8C187.733,131.814,183.91,128,179.2,128z M170.667,149.333    c0,16.469-13.397,29.867-29.867,29.867h-8.533c-16.469,0-29.867-13.397-29.867-29.867v-4.267h68.267V149.333z" fill="#FF2C68"/>
	</g>
</g>
<g>
	<g>
		<path d="M418.133,128H332.8c-4.71,0-8.533,3.814-8.533,8.533v12.8c0,25.873,21.052,46.933,46.933,46.933h8.533    c25.882,0,46.933-21.06,46.933-46.933v-12.8C426.667,131.814,422.844,128,418.133,128z M409.6,149.333    c0,16.469-13.397,29.867-29.867,29.867H371.2c-16.469,0-29.867-13.397-29.867-29.867v-4.267H409.6V149.333z" fill="#FF2C68"/>
	</g>
</g>
<g>
	<g>
		<path d="M503.467,128h-85.333c-4.71,0-8.533,3.814-8.533,8.533v12.8c0,25.873,21.052,46.933,46.933,46.933h8.533    c25.882,0,46.933-21.06,46.933-46.933v-12.8C512,131.814,508.177,128,503.467,128z M494.933,149.333    c0,16.469-13.397,29.867-29.867,29.867h-8.533c-16.469,0-29.867-13.397-29.867-29.867v-4.267h68.267V149.333z" fill="#FF2C68"/>
	</g>
</g>
<g>
	<g>
		<path d="M256,128h-76.8c-4.71,0-8.533,3.814-8.533,8.533v12.8c0,25.873,21.052,46.933,46.933,46.933    c25.882,0,46.933-21.06,46.933-46.933v-12.8C264.533,131.814,260.71,128,256,128z M247.467,149.333    c0,16.469-13.397,29.867-29.867,29.867c-16.469,0-29.867-13.397-29.867-29.867v-4.267h59.733V149.333z" fill="#FF2C68"/>
	</g>
</g>
<g>
	<g>
		<path d="M332.8,128H256c-4.71,0-8.533,3.814-8.533,8.533v12.8c0,25.873,21.052,46.933,46.933,46.933s46.933-21.06,46.933-46.933    v-12.8C341.333,131.814,337.51,128,332.8,128z M324.267,149.333c0,16.469-13.397,29.867-29.867,29.867    c-16.469,0-29.867-13.397-29.867-29.867v-4.267h59.733V149.333z" fill="#FF2C68"/>
	</g>
</g>
<g>
	<g>
		<path d="M482.79,178.415c-2.261-1.604-5.163-2.014-7.774-1.075c-3.533,1.254-6.784,1.86-9.95,1.86h-8.533    c-12.518,0-23.774-8.004-28.015-19.925c-1.203-3.396-4.429-5.675-8.038-5.675h-4.702c-3.61,0-6.827,2.278-8.038,5.675    c-4.233,11.921-15.488,19.925-28.006,19.925H371.2c-12.518,0-23.774-8.004-28.015-19.925c-1.203-3.396-4.429-5.675-8.038-5.675    h-4.702c-3.61,0-6.827,2.278-8.038,5.675c-4.233,11.921-15.488,19.925-28.006,19.925s-23.774-8.004-28.015-19.925    c-1.203-3.396-4.429-5.675-8.038-5.675h-4.702c-3.61,0-6.827,2.278-8.038,5.675c-4.232,11.921-15.488,19.925-28.006,19.925    c-12.518,0-23.774-8.004-28.015-19.925c-1.203-3.396-4.429-5.675-8.038-5.675h-4.702c-3.61,0-6.827,2.278-8.038,5.675    c-4.233,11.921-15.488,19.925-28.006,19.925h-8.533c-12.518,0-23.774-8.004-28.015-19.925c-1.203-3.396-4.429-5.675-8.038-5.675    h-4.702c-3.61,0-6.827,2.278-8.038,5.675C79.241,171.196,67.985,179.2,55.467,179.2h-8.533c-3.166,0-6.417-0.606-9.95-1.852    c-2.611-0.93-5.504-0.529-7.774,1.075c-2.261,1.596-3.61,4.19-3.61,6.963v318.08c0,4.719,3.823,8.533,8.533,8.533h443.733    c4.71,0,8.533-3.814,8.533-8.533v-318.08C486.4,182.605,485.052,180.019,482.79,178.415z M469.333,494.933H42.667v-298.88    c1.425,0.137,2.842,0.213,4.267,0.213h8.533c15.505,0,29.781-7.774,38.4-20.19c8.619,12.416,22.895,20.19,38.4,20.19h8.533    c15.505,0,29.781-7.774,38.4-20.19c8.619,12.416,22.895,20.19,38.4,20.19s29.781-7.774,38.4-20.19    c8.619,12.416,22.895,20.19,38.4,20.19s29.781-7.774,38.4-20.19c8.619,12.416,22.895,20.19,38.4,20.19h8.533    c15.505,0,29.781-7.774,38.4-20.19c8.619,12.416,22.895,20.19,38.4,20.19h8.533c1.425,0,2.842-0.077,4.267-0.213V494.933z" fill="#FF2C68"/>
	</g>
</g>
<g>
	<g>
		<path d="M204.8,221.867H68.267c-4.71,0-8.533,3.814-8.533,8.533v273.067c0,4.719,3.823,8.533,8.533,8.533H204.8    c4.71,0,8.533-3.814,8.533-8.533V230.4C213.333,225.681,209.51,221.867,204.8,221.867z M196.267,494.933H76.8v-256h119.467    V494.933z" fill="#FF2C68"/>
	</g>
</g>
<g>
	<g>
		<path d="M85.333,281.6H68.267c-4.71,0-8.533,3.814-8.533,8.533s3.823,8.533,8.533,8.533h17.067c4.71,0,8.533-3.814,8.533-8.533    S90.044,281.6,85.333,281.6z" fill="#FF2C68"/>
	</g>
</g>
<g>
	<g>
		<path d="M85.333,435.2H68.267c-4.71,0-8.533,3.814-8.533,8.533c0,4.719,3.823,8.533,8.533,8.533h17.067    c4.71,0,8.533-3.814,8.533-8.533C93.867,439.014,90.044,435.2,85.333,435.2z" fill="#FF2C68"/>
	</g>
</g>
<g>
	<g>
		<path d="M443.733,221.867h-204.8c-4.71,0-8.533,3.814-8.533,8.533v238.933c0,4.719,3.823,8.533,8.533,8.533h204.8    c4.71,0,8.533-3.814,8.533-8.533V230.4C452.267,225.681,448.444,221.867,443.733,221.867z M435.2,460.8H247.467V238.933H435.2    V460.8z" fill="#FF2C68"/>
	</g>
</g>
<g>
	<g>
		<path d="M170.667,349.867h-25.6c-4.71,0-8.533,3.814-8.533,8.533s3.823,8.533,8.533,8.533h17.067V384    c0,4.719,3.823,8.533,8.533,8.533s8.533-3.814,8.533-8.533v-25.6C179.2,353.681,175.377,349.867,170.667,349.867z" fill="#FF2C68"/>
	</g>
</g>
<g>
	<g>
		<path d="M324.267,221.867h-85.333c-4.71,0-8.533,3.814-8.533,8.533v119.467c0,2.697,1.271,5.231,3.439,6.852    c1.493,1.109,3.285,1.681,5.094,1.681c0.819,0,1.647-0.119,2.449-0.358C331.75,330.931,332.8,231.398,332.8,230.4    C332.8,225.681,328.977,221.867,324.267,221.867z M247.467,337.809v-98.876h67.746    C313.088,260.267,302.293,315.247,247.467,337.809z" fill="#FF2C68"/>
	</g>
</g>
<g>
	<g>
		<path d="M443.733,221.867H358.4c-4.71,0-8.533,3.814-8.533,8.533c0,0.998,1.05,100.531,91.418,127.642    c0.802,0.239,1.63,0.358,2.449,0.358c1.809,0,3.601-0.572,5.094-1.681c2.167-1.621,3.439-4.156,3.439-6.852V230.4    C452.267,225.681,448.444,221.867,443.733,221.867z M435.2,337.809c-54.818-22.562-65.621-77.542-67.746-98.876H435.2V337.809z" fill="#FF2C68"/>
	</g>
</g>
<g>
	<g>
		<path d="M358.4,409.6h-34.133c-4.71,0-8.533,3.814-8.533,8.533v51.2c0,4.719,3.823,8.533,8.533,8.533H358.4    c4.71,0,8.533-3.814,8.533-8.533v-51.2C366.933,413.414,363.11,409.6,358.4,409.6z M349.867,460.8H332.8v-34.133h17.067V460.8z" fill="#FF2C68"/>
	</g>
</g>
<g>
	<g>
		<path d="M401.067,375.467H281.6c-4.71,0-8.533,3.814-8.533,8.533v34.133c0,4.719,3.823,8.533,8.533,8.533h119.467    c4.71,0,8.533-3.814,8.533-8.533V384C409.6,379.281,405.777,375.467,401.067,375.467z M392.533,409.6h-102.4v-17.067h102.4V409.6z    " fill="#FF2C68"/>
	</g>
</g>
<g>
</g>
<g>
</g>
<g>
</g>
<g>
</g>
<g>
</g>
<g>
</g>
<g>
</g>
<g>
</g>
<g>
</g>
<g>
</g>
<g>
</g>
<g>
</g>
<g>
</g>
<g>
</g>
<g>
</g>
</svg>
